# xmcd
#
# Track frame offsets:
#	150
#	17200
#	36635
#	54702
#	75840
#	98232
#	112485
#	130007
#	149007
#	171365
#	191167
#
# Disc length: 2742 seconds
# Revision: 3
# Processed by: cddbd v1.5.2PL0 Copyright (c) Steve Scherf et al.
# Submitted via: dBpowerAMP V12.0
#
DISCID=a50ab40b
DTITLE=Otis Spann - Walking the Blues
DYEAR=8
DGENRE=Blues
TTITLE0=It Must Have Been the Devil
TTITLE1=Otis Blues
TTITLE2=Going Down Slow
TTITLE3=Half Ain't Been Told
TTITLE4=Monkey Woman
TTITLE5=This Is the Blues
TTITLE6=Evil Ways
TTITLE7=Come Day Go Day
TTITLE8=Walking The Blues
TTITLE9=Bad Condition
TTITLE10=My Home Is in the Delta
EXTD=
EXTT0=
EXTT1=
EXTT2=
EXTT3=
EXTT4=
EXTT5=
EXTT6=
EXTT7=
EXTT8=
EXTT9=
EXTT10=
PLAYORDER=
